<svg width="126" height="22" viewBox="0 0 126 22" fill="none" xmlns="http://www.w3.org/2000/svg">
<path d="M12.97 14V6.86H18.33V14H17.44V7.65H13.87V14H12.97ZM22.2345 8.54C22.6945 8.54 23.0878 8.64 23.4145 8.84C23.7478 9.04 24.0011 9.32333 24.1745 9.69C24.3545 10.05 24.4445 10.4733 24.4445 10.96V11.49H20.7745C20.7878 12.0967 20.9411 12.56 21.2345 12.88C21.5345 13.1933 21.9511 13.35 22.4845 13.35C22.8245 13.35 23.1245 13.32 23.3845 13.26C23.6511 13.1933 23.9245 13.1 24.2045 12.98V13.75C23.9311 13.87 23.6611 13.9567 23.3945 14.01C23.1278 14.07 22.8111 14.1 22.4445 14.1C21.9378 14.1 21.4878 13.9967 21.0945 13.79C20.7078 13.5833 20.4045 13.2767 20.1845 12.87C19.9711 12.4567 19.8645 11.9533 19.8645 11.36C19.8645 10.7733 19.9611 10.27 20.1545 9.85C20.3545 9.43 20.6311 9.10667 20.9845 8.88C21.3445 8.65333 21.7611 8.54 22.2345 8.54ZM22.2245 9.26C21.8045 9.26 21.4711 9.39667 21.2245 9.67C20.9845 9.93667 20.8411 10.31 20.7945 10.79H23.5245C23.5245 10.4833 23.4778 10.2167 23.3845 9.99C23.2911 9.76333 23.1478 9.58667 22.9545 9.46C22.7678 9.32667 22.5245 9.26 22.2245 9.26ZM28.359 8.54C29.019 8.54 29.549 8.77 29.949 9.23C30.3557 9.69 30.559 10.3833 30.559 11.31C30.559 11.9167 30.4657 12.43 30.279 12.85C30.099 13.2633 29.8423 13.5767 29.509 13.79C29.1823 13.9967 28.7957 14.1 28.349 14.1C28.0757 14.1 27.8323 14.0633 27.619 13.99C27.4057 13.9167 27.2223 13.8233 27.069 13.71C26.9223 13.59 26.7957 13.46 26.689 13.32H26.629C26.6423 13.4333 26.6557 13.5767 26.669 13.75C26.6823 13.9233 26.689 14.0733 26.689 14.2V16.4H25.809V8.64H26.529L26.649 9.37H26.689C26.7957 9.21667 26.9223 9.07667 27.069 8.95C27.2223 8.82333 27.4023 8.72333 27.609 8.65C27.8223 8.57667 28.0723 8.54 28.359 8.54ZM28.199 9.28C27.839 9.28 27.549 9.35 27.329 9.49C27.109 9.62333 26.949 9.82667 26.849 10.1C26.749 10.3733 26.6957 10.72 26.689 11.14V11.31C26.689 11.75 26.7357 12.1233 26.829 12.43C26.9223 12.7367 27.079 12.97 27.299 13.13C27.5257 13.29 27.8323 13.37 28.219 13.37C28.5457 13.37 28.8123 13.28 29.019 13.1C29.2323 12.92 29.389 12.6767 29.489 12.37C29.5957 12.0567 29.649 11.7 29.649 11.3C29.649 10.6867 29.529 10.1967 29.289 9.83C29.0557 9.46333 28.6923 9.28 28.199 9.28ZM34.0313 8.54C34.4913 8.54 34.8847 8.64 35.2113 8.84C35.5447 9.04 35.798 9.32333 35.9713 9.69C36.1513 10.05 36.2413 10.4733 36.2413 10.96V11.49H32.5713C32.5847 12.0967 32.738 12.56 33.0313 12.88C33.3313 13.1933 33.748 13.35 34.2813 13.35C34.6213 13.35 34.9213 13.32 35.1813 13.26C35.448 13.1933 35.7213 13.1 36.0013 12.98V13.75C35.728 13.87 35.458 13.9567 35.1913 14.01C34.9247 14.07 34.608 14.1 34.2413 14.1C33.7347 14.1 33.2847 13.9967 32.8913 13.79C32.5047 13.5833 32.2013 13.2767 31.9813 12.87C31.768 12.4567 31.6613 11.9533 31.6613 11.36C31.6613 10.7733 31.758 10.27 31.9513 9.85C32.1513 9.43 32.428 9.10667 32.7813 8.88C33.1413 8.65333 33.558 8.54 34.0313 8.54ZM34.0213 9.26C33.6013 9.26 33.268 9.39667 33.0213 9.67C32.7813 9.93667 32.638 10.31 32.5913 10.79H35.3213C35.3213 10.4833 35.2747 10.2167 35.1813 9.99C35.088 9.76333 34.9447 9.58667 34.7513 9.46C34.5647 9.32667 34.3213 9.26 34.0213 9.26ZM40.8759 8.64V9.38H38.4859V14H37.6059V8.64H40.8759ZM45.7093 14H44.8193V9.37H43.2393C43.1726 10.2167 43.0893 10.94 42.9893 11.54C42.8893 12.1333 42.7626 12.6167 42.6093 12.99C42.456 13.3633 42.2726 13.6367 42.0593 13.81C41.846 13.9833 41.596 14.07 41.3093 14.07C41.2226 14.07 41.136 14.0633 41.0493 14.05C40.9693 14.0433 40.9026 14.0267 40.8493 14V13.34C40.8893 13.3533 40.9326 13.3633 40.9793 13.37C41.026 13.3767 41.0726 13.38 41.1193 13.38C41.266 13.38 41.3993 13.32 41.5193 13.2C41.6393 13.08 41.746 12.8967 41.8393 12.65C41.9393 12.4033 42.0293 12.0933 42.1093 11.72C42.1893 11.34 42.2593 10.8933 42.3193 10.38C42.3793 9.86667 42.4326 9.28667 42.4793 8.64H45.7093V14ZM47.7405 14H46.7205L48.2505 11.75C48.0439 11.6967 47.8439 11.6133 47.6505 11.5C47.4572 11.38 47.3005 11.2167 47.1805 11.01C47.0605 10.7967 47.0005 10.5333 47.0005 10.22C47.0005 9.70667 47.1739 9.31667 47.5205 9.05C47.8672 8.77667 48.3272 8.64 48.9005 8.64H51.3005V14H50.4205V11.87H49.1205L47.7405 14ZM47.8505 10.23C47.8505 10.5367 47.9639 10.7667 48.1905 10.92C48.4239 11.0667 48.7472 11.14 49.1605 11.14H50.4205V9.37H48.9905C48.5839 9.37 48.2905 9.45 48.1105 9.61C47.9372 9.77 47.8505 9.97667 47.8505 10.23ZM53.8765 8.64V10.87H56.7865V8.64H57.6665V14H56.7865V11.61H53.8765V14H52.9965V8.64H53.8765ZM58.5237 8.64H59.4637L60.6237 11.69C60.6903 11.87 60.7503 12.0433 60.8037 12.21C60.8637 12.3767 60.917 12.54 60.9637 12.7C61.0103 12.8533 61.047 13.0033 61.0737 13.15H61.1137C61.1537 12.9833 61.217 12.7667 61.3037 12.5C61.3903 12.2267 61.4803 11.9533 61.5737 11.68L62.6637 8.64H63.6137L61.3037 14.74C61.177 15.0733 61.027 15.3633 60.8537 15.61C60.687 15.8633 60.4803 16.0567 60.2337 16.19C59.9937 16.33 59.7003 16.4 59.3537 16.4C59.1937 16.4 59.0537 16.39 58.9337 16.37C58.8137 16.3567 58.7103 16.34 58.6237 16.32V15.62C58.697 15.6333 58.7837 15.6467 58.8837 15.66C58.9903 15.6733 59.1003 15.68 59.2137 15.68C59.4203 15.68 59.597 15.64 59.7437 15.56C59.897 15.4867 60.027 15.3767 60.1337 15.23C60.2403 15.09 60.3303 14.9233 60.4037 14.73L60.6837 14.02L58.5237 8.64ZM68.1613 9.38H66.4113V14H65.5413V9.38H63.8113V8.64H68.1613V9.38ZM70.0472 11.91C70.0472 11.97 70.0439 12.0567 70.0372 12.17C70.0372 12.2767 70.0339 12.3933 70.0272 12.52C70.0205 12.64 70.0139 12.7567 70.0072 12.87C70.0005 12.9767 69.9939 13.0633 69.9872 13.13L72.8572 8.64H73.9372V14H73.1172V10.84C73.1172 10.7333 73.1172 10.5933 73.1172 10.42C73.1239 10.2467 73.1305 10.0767 73.1372 9.91C73.1439 9.73667 73.1505 9.60667 73.1572 9.52L70.3072 14H69.2172V8.64H70.0472V11.91ZM82.7557 9.99C82.7557 10.3233 82.6557 10.5833 82.4557 10.77C82.2557 10.9567 81.999 11.0833 81.6857 11.15V11.19C82.019 11.2367 82.309 11.3567 82.5557 11.55C82.8024 11.7367 82.9257 12.03 82.9257 12.43C82.9257 12.6567 82.8824 12.8667 82.7957 13.06C82.7157 13.2533 82.589 13.42 82.4157 13.56C82.2424 13.7 82.019 13.81 81.7457 13.89C81.4724 13.9633 81.1424 14 80.7557 14H78.4457V8.64H80.7457C81.1257 8.64 81.4657 8.68333 81.7657 8.77C82.0724 8.85 82.3124 8.99 82.4857 9.19C82.6657 9.38333 82.7557 9.65 82.7557 9.99ZM82.0157 12.43C82.0157 12.1233 81.899 11.9033 81.6657 11.77C81.4324 11.6367 81.089 11.57 80.6357 11.57H79.3257V13.29H80.6557C81.0957 13.29 81.4324 13.2267 81.6657 13.1C81.899 12.9667 82.0157 12.7433 82.0157 12.43ZM81.8657 10.1C81.8657 9.84667 81.7724 9.66333 81.5857 9.55C81.4057 9.43 81.109 9.37 80.6957 9.37H79.3257V10.84H80.5357C80.969 10.84 81.299 10.78 81.5257 10.66C81.7524 10.54 81.8657 10.3533 81.8657 10.1ZM86.3574 14.1C85.8841 14.1 85.4608 14.0033 85.0874 13.81C84.7208 13.6167 84.4308 13.3167 84.2174 12.91C84.0108 12.5033 83.9074 11.9833 83.9074 11.35C83.9074 10.69 84.0174 10.1533 84.2374 9.74C84.4574 9.32667 84.7541 9.02333 85.1274 8.83C85.5074 8.63667 85.9374 8.54 86.4174 8.54C86.6908 8.54 86.9541 8.57 87.2074 8.63C87.4608 8.68333 87.6674 8.75 87.8274 8.83L87.5574 9.56C87.3974 9.5 87.2108 9.44333 86.9974 9.39C86.7841 9.33667 86.5841 9.31 86.3974 9.31C86.0374 9.31 85.7408 9.38667 85.5074 9.54C85.2741 9.69333 85.1008 9.92 84.9874 10.22C84.8741 10.52 84.8174 10.8933 84.8174 11.34C84.8174 11.7667 84.8741 12.13 84.9874 12.43C85.1008 12.73 85.2708 12.9567 85.4974 13.11C85.7241 13.2633 86.0074 13.34 86.3474 13.34C86.6408 13.34 86.8974 13.31 87.1174 13.25C87.3441 13.19 87.5508 13.1167 87.7374 13.03V13.81C87.5574 13.9033 87.3574 13.9733 87.1374 14.02C86.9241 14.0733 86.6641 14.1 86.3574 14.1ZM89.8921 8.64V14H89.0121V8.64H89.8921ZM89.4621 6.63C89.5954 6.63 89.7121 6.67667 89.8121 6.77C89.9188 6.85667 89.9721 6.99667 89.9721 7.19C89.9721 7.37667 89.9188 7.51667 89.8121 7.61C89.7121 7.70333 89.5954 7.75 89.4621 7.75C89.3154 7.75 89.1921 7.70333 89.0921 7.61C88.9921 7.51667 88.9421 7.37667 88.9421 7.19C88.9421 6.99667 88.9921 6.85667 89.0921 6.77C89.1921 6.67667 89.3154 6.63 89.4621 6.63Z" fill="#1B1D21"/>
<path d="M114.674 11.5349L112.164 10.1099L112.185 12.9966L114.674 11.5349ZM103.285 11.8684L112.426 11.8014L112.423 11.3014L103.281 11.3684L103.285 11.8684Z" fill="#1B1D21"/>
<path d="M0.1 0.1H125.9V21.9H0.1V0.1Z" stroke="#1B1D21" stroke-width="0.2"/>
</svg>
