<svg width="243" height="50" viewBox="0 0 243 50" fill="none" xmlns="http://www.w3.org/2000/svg">
<rect width="243" height="50" rx="5" fill="black"/>
<path d="M61.4 32V17.6H72.85V32H70.76V19.57H63.49V32H61.4ZM75.8578 19.43V17.4H77.9478V19.43H75.8578ZM75.8578 32V21.2H77.9478V32H75.8578ZM80.1508 34.4V30.32C80.7441 30.32 81.1674 30.1233 81.4208 29.73C81.6808 29.33 81.8874 28.6533 82.0408 27.7C82.1341 27.12 82.2108 26.5033 82.2708 25.85C82.3374 25.1967 82.3941 24.49 82.4408 23.73C82.4874 22.9633 82.5341 22.12 82.5808 21.2H90.3208V30.32H91.3808V34.4H89.4008V32H82.1408V34.4H80.1508ZM83.1408 30.32H88.2208V22.88H84.4408C84.4141 23.32 84.3841 23.7733 84.3508 24.24C84.3241 24.7067 84.2908 25.17 84.2508 25.63C84.2174 26.09 84.1774 26.53 84.1308 26.95C84.0841 27.37 84.0308 27.75 83.9708 28.09C83.8908 28.6167 83.7941 29.0567 83.6808 29.41C83.5741 29.7633 83.3941 30.0667 83.1408 30.32ZM93.3627 32V21.2H102.473V32H100.383V23.17H95.4527V32H93.3627ZM114.367 21.2V32H112.357V24.49L106.957 32H105.257V21.2H107.267V28.56L112.677 21.2H114.367ZM121.782 32.3C120.675 32.3 119.735 32.0533 118.962 31.56C118.188 31.0667 117.595 30.39 117.182 29.53C116.775 28.67 116.568 27.6933 116.562 26.6C116.568 25.4867 116.782 24.5033 117.202 23.65C117.622 22.79 118.222 22.1167 119.002 21.63C119.782 21.1433 120.718 20.9 121.812 20.9C122.992 20.9 123.998 21.1933 124.832 21.78C125.672 22.3667 126.225 23.17 126.492 24.19L124.412 24.79C124.205 24.1833 123.865 23.7133 123.392 23.38C122.925 23.04 122.388 22.87 121.782 22.87C121.095 22.87 120.532 23.0333 120.092 23.36C119.652 23.68 119.325 24.12 119.112 24.68C118.898 25.24 118.788 25.88 118.782 26.6C118.788 27.7133 119.042 28.6133 119.542 29.3C120.048 29.9867 120.795 30.33 121.782 30.33C122.455 30.33 122.998 30.1767 123.412 29.87C123.832 29.5567 124.152 29.11 124.372 28.53L126.492 29.03C126.138 30.0833 125.555 30.8933 124.742 31.46C123.928 32.02 122.942 32.3 121.782 32.3ZM131.442 32.3C130.642 32.3 129.972 32.1533 129.432 31.86C128.892 31.56 128.482 31.1667 128.202 30.68C127.929 30.1867 127.792 29.6467 127.792 29.06C127.792 28.5133 127.889 28.0333 128.082 27.62C128.276 27.2067 128.562 26.8567 128.942 26.57C129.322 26.2767 129.789 26.04 130.342 25.86C130.822 25.72 131.366 25.5967 131.972 25.49C132.579 25.3833 133.216 25.2833 133.882 25.19C134.556 25.0967 135.222 25.0033 135.882 24.91L135.122 25.33C135.136 24.4833 134.956 23.8567 134.582 23.45C134.216 23.0367 133.582 22.83 132.682 22.83C132.116 22.83 131.596 22.9633 131.122 23.23C130.649 23.49 130.319 23.9233 130.132 24.53L128.182 23.93C128.449 23.0033 128.956 22.2667 129.702 21.72C130.456 21.1733 131.456 20.9 132.702 20.9C133.669 20.9 134.509 21.0667 135.222 21.4C135.942 21.7267 136.469 22.2467 136.802 22.96C136.976 23.3133 137.082 23.6867 137.122 24.08C137.162 24.4733 137.182 24.8967 137.182 25.35V32H135.332V29.53L135.692 29.85C135.246 30.6767 134.676 31.2933 133.982 31.7C133.296 32.1 132.449 32.3 131.442 32.3ZM131.812 30.59C132.406 30.59 132.916 30.4867 133.342 30.28C133.769 30.0667 134.112 29.7967 134.372 29.47C134.632 29.1433 134.802 28.8033 134.882 28.45C134.996 28.13 135.059 27.77 135.072 27.37C135.092 26.97 135.102 26.65 135.102 26.41L135.782 26.66C135.122 26.76 134.522 26.85 133.982 26.93C133.442 27.01 132.952 27.09 132.512 27.17C132.079 27.2433 131.692 27.3333 131.352 27.44C131.066 27.54 130.809 27.66 130.582 27.8C130.362 27.94 130.186 28.11 130.052 28.31C129.926 28.51 129.862 28.7533 129.862 29.04C129.862 29.32 129.932 29.58 130.072 29.82C130.212 30.0533 130.426 30.24 130.712 30.38C130.999 30.52 131.366 30.59 131.812 30.59ZM142.569 32V23.08H138.879V21.2H148.349V23.08H144.659V32H142.569ZM159.348 21.2V32H157.338V24.49L151.938 32H150.238V21.2H152.248V28.56L157.658 21.2H159.348ZM166.762 32.3C165.656 32.3 164.716 32.0533 163.942 31.56C163.169 31.0667 162.576 30.39 162.162 29.53C161.756 28.67 161.549 27.6933 161.542 26.6C161.549 25.4867 161.762 24.5033 162.182 23.65C162.602 22.79 163.202 22.1167 163.982 21.63C164.762 21.1433 165.699 20.9 166.792 20.9C167.972 20.9 168.979 21.1933 169.812 21.78C170.652 22.3667 171.206 23.17 171.472 24.19L169.392 24.79C169.186 24.1833 168.846 23.7133 168.372 23.38C167.906 23.04 167.369 22.87 166.762 22.87C166.076 22.87 165.512 23.0333 165.072 23.36C164.632 23.68 164.306 24.12 164.092 24.68C163.879 25.24 163.769 25.88 163.762 26.6C163.769 27.7133 164.022 28.6133 164.522 29.3C165.029 29.9867 165.776 30.33 166.762 30.33C167.436 30.33 167.979 30.1767 168.392 29.87C168.812 29.5567 169.132 29.11 169.352 28.53L171.472 29.03C171.119 30.0833 170.536 30.8933 169.722 31.46C168.909 32.02 167.922 32.3 166.762 32.3ZM179.943 32V28.25H177.803C177.549 28.25 177.246 28.24 176.893 28.22C176.546 28.2 176.219 28.1633 175.913 28.11C175.106 27.9633 174.433 27.6133 173.893 27.06C173.353 26.5 173.083 25.73 173.083 24.75C173.083 23.8033 173.336 23.0433 173.843 22.47C174.356 21.89 175.006 21.5167 175.793 21.35C176.133 21.27 176.479 21.2267 176.833 21.22C177.193 21.2067 177.496 21.2 177.743 21.2H182.033L182.043 32H179.943ZM172.773 32L175.503 27.73H177.713L175.003 32H172.773ZM177.623 26.57H179.943V22.88H177.623C177.476 22.88 177.296 22.8867 177.083 22.9C176.869 22.9133 176.663 22.95 176.463 23.01C176.256 23.07 176.056 23.1767 175.863 23.33C175.676 23.4833 175.523 23.68 175.403 23.92C175.283 24.1533 175.223 24.4233 175.223 24.73C175.223 25.19 175.353 25.57 175.613 25.87C175.873 26.1633 176.183 26.3567 176.543 26.45C176.736 26.5033 176.929 26.5367 177.123 26.55C177.316 26.5633 177.483 26.57 177.623 26.57Z" fill="white"/>
</svg>
