<svg width="50" height="48" viewBox="0 0 50 48" fill="none" xmlns="http://www.w3.org/2000/svg">
<path d="M0.5 24C0.5 11.0213 11.0213 0.5 24 0.5H26C38.9787 0.5 49.5 11.0213 49.5 24C49.5 36.9787 38.9787 47.5 26 47.5H24C11.0213 47.5 0.5 36.9787 0.5 24Z" stroke="#1B1D21"/>
<path fill-rule="evenodd" clip-rule="evenodd" d="M32.2783 29.2589C32.2783 30.7061 31.0591 31.8794 29.5552 31.8794H19.7519C18.248 31.8794 17.0288 30.7061 17.0288 29.2589V20.3494H20.2966V19.3012C20.2966 16.9893 22.2511 15.1085 24.6535 15.1085C27.056 15.1085 29.0105 16.9893 29.0105 19.3012V20.3494H32.2783V29.2589ZM22.475 19.3012V20.3494H26.832V19.3012C26.832 18.1453 25.8548 17.2049 24.6535 17.2049C23.4523 17.2049 22.475 18.1453 22.475 19.3012ZM27.9213 23.2319C27.4701 23.2319 27.1043 22.8799 27.1043 22.4457C27.1043 22.0116 27.4701 21.6596 27.9213 21.6596C28.3724 21.6596 28.7382 22.0116 28.7382 22.4457C28.7382 22.8799 28.3724 23.2319 27.9213 23.2319ZM20.5687 22.4457C20.5687 22.8799 20.9345 23.2319 21.3857 23.2319C21.8368 23.2319 22.2026 22.8799 22.2026 22.4457C22.2026 22.0116 21.8368 21.6596 21.3857 21.6596C20.9345 21.6596 20.5687 22.0116 20.5687 22.4457Z" fill="#1B1D21"/>
</svg>
