<svg width="45" height="47" viewBox="0 0 45 47" fill="none" xmlns="http://www.w3.org/2000/svg">
<path fill-rule="evenodd" clip-rule="evenodd" d="M36.8253 19.1734C36.8253 8.8259 28.125 2.13536 18.5088 2.13536C8.89269 2.13536 0.192383 8.8259 0.192383 19.1734C0.192383 26.0717 6.30549 34.2375 18.5088 43.6916C30.7122 34.2375 36.8253 26.0717 36.8253 19.1734ZM32.2459 19.1734C32.2459 11.6309 26.1786 6.29096 18.5086 6.29096C10.8386 6.29096 4.77124 11.6309 4.77124 19.1734C4.77124 24.0355 9.23587 30.4767 18.5086 38.1646C27.7813 30.4767 32.2459 24.0355 32.2459 19.1734ZM18.5088 22.9134C15.9903 22.9134 13.9297 21.0434 13.9297 18.7578C13.9297 16.4722 15.9903 14.6022 18.5088 14.6022C21.0273 14.6022 23.0879 16.4722 23.0879 18.7578C23.0879 21.0434 21.0273 22.9134 18.5088 22.9134Z" fill="#1B1D21"/>
</svg>
