<svg width="50" height="48" viewBox="0 0 50 48" fill="none" xmlns="http://www.w3.org/2000/svg">
<path fill-rule="evenodd" clip-rule="evenodd" d="M24 1H26C38.7025 1 49 11.2975 49 24C49 36.7025 38.7025 47 26 47H24C11.2975 47 1 36.7025 1 24C1 11.2975 11.2975 1 24 1ZM0 24C0 10.7452 10.7452 0 24 0H26C39.2548 0 50 10.7452 50 24C50 37.2548 39.2548 48 26 48H24C10.7452 48 0 37.2548 0 24ZM25.6247 23.3854C28.0312 23.3854 29.9817 21.5085 29.9817 19.1927C29.9817 16.8769 28.0312 15 25.6247 15C23.2181 15 21.2677 16.8769 21.2677 19.1927C21.2677 21.5085 23.2181 23.3854 25.6247 23.3854ZM31.6156 31.7708C32.5176 31.7708 33.2495 31.0666 33.2495 30.1985V28.8359C33.2495 26.4055 31.2003 24.4336 28.6746 24.4336H28.1062C27.3505 24.7677 26.5097 24.9577 25.6247 24.9577C24.7397 24.9577 23.9024 24.7677 23.1433 24.4336H22.5749C20.0492 24.4336 18 26.4055 18 28.8359V30.1985C18 31.0666 18.7318 31.7708 19.6339 31.7708H31.6156Z" fill="#1B1D21"/>
</svg>
